<?xml version="1.0" encoding="UTF-8" standalone="no"?>
<svg
   class="svglite"
   width="248.88pt"
   height="287.70001pt"
   viewBox="0 0 248.88 287.70001"
   version="1.1"
   id="svg139"
   sodipodi:docname="dpavir_hex.svg"
   inkscape:version="1.2.2 (1:1.2.2+202212051552+b0a8486541)"
   inkscape:export-filename="dpavir_hex.png"
   inkscape:export-xdpi="96"
   inkscape:export-ydpi="96"
   xmlns:inkscape="http://www.inkscape.org/namespaces/inkscape"
   xmlns:sodipodi="http://sodipodi.sourceforge.net/DTD/sodipodi-0.dtd"
   xmlns="http://www.w3.org/2000/svg"
   xmlns:svg="http://www.w3.org/2000/svg">
  <sodipodi:namedview
     id="namedview141"
     pagecolor="#ffffff"
     bordercolor="#111111"
     borderopacity="1"
     inkscape:showpageshadow="0"
     inkscape:pageopacity="0"
     inkscape:pagecheckerboard="1"
     inkscape:deskcolor="#d1d1d1"
     inkscape:document-units="pt"
     showgrid="false"
     inkscape:zoom="2.2575599"
     inkscape:cx="159.24273"
     inkscape:cy="191.8"
     inkscape:window-width="1920"
     inkscape:window-height="1043"
     inkscape:window-x="0"
     inkscape:window-y="0"
     inkscape:window-maximized="1"
     inkscape:current-layer="svg139" />
  <defs
     id="defs4">
    <style
       type="text/css"
       id="style2"><![CDATA[
    .svglite line, .svglite polyline, .svglite polygon, .svglite path, .svglite rect, .svglite circle {
      fill: none;
      stroke: #000000;
      stroke-linecap: round;
      stroke-linejoin: round;
      stroke-miterlimit: 10.00;
    }
    .svglite text {
      white-space: pre;
    }
  ]]></style>
    <clipPath
       clipPathUnits="userSpaceOnUse"
       id="clipPath436">
      <g
         id="g440">
        <rect
           x="0"
           y="0.14"
           width="124.44"
           height="143.85001"
           id="rect438" />
      </g>
    </clipPath>
    <clipPath
       clipPathUnits="userSpaceOnUse"
       id="clipPath442">
      <g
         id="g446">
        <rect
           x="0"
           y="0.14"
           width="124.44"
           height="143.85001"
           id="rect444" />
      </g>
    </clipPath>
    <clipPath
       clipPathUnits="userSpaceOnUse"
       id="clipPath448">
      <g
         id="g452">
        <rect
           x="0"
           y="0.14"
           width="124.44"
           height="143.85001"
           id="rect450" />
      </g>
    </clipPath>
    <clipPath
       clipPathUnits="userSpaceOnUse"
       id="clipPath454">
      <g
         id="g458">
        <rect
           x="0"
           y="0.14"
           width="124.44"
           height="143.85001"
           id="rect456" />
      </g>
    </clipPath>
    <clipPath
       clipPathUnits="userSpaceOnUse"
       id="clipPath460">
      <g
         id="g464">
        <rect
           x="0"
           y="0.14"
           width="124.44"
           height="143.85001"
           id="rect462" />
      </g>
    </clipPath>
    <clipPath
       clipPathUnits="userSpaceOnUse"
       id="clipPath466">
      <g
         id="g470">
        <rect
           x="0"
           y="0.14"
           width="124.44"
           height="143.85001"
           id="rect468" />
      </g>
    </clipPath>
    <clipPath
       clipPathUnits="userSpaceOnUse"
       id="clipPath472">
      <g
         id="g476">
        <rect
           x="0"
           y="0.14"
           width="124.44"
           height="143.85001"
           id="rect474" />
      </g>
    </clipPath>
  </defs>
  <defs
     id="defs11">
    <clipPath
       id="cpMC4wMHwxMjQuNDR8MC4wMHwxNDQuMDA=">
      <rect
         x="0"
         y="0"
         width="124.44"
         height="144"
         id="rect8" />
    </clipPath>
  </defs>
  <defs
     id="defs18">
    <clipPath
       id="cpMC4wMHwxMjQuNDR8MC4xNHwxNDMuODY=">
      <rect
         x="0"
         y="0.14"
         width="124.44"
         height="143.71001"
         id="rect15" />
    </clipPath>
  </defs>
  <defs
     id="defs29">
    <clipPath
       id="cpMC4wMHwxMjQuNDR8MC4xNHwxNDQuMDA=">
      <rect
         x="0"
         y="0.14"
         width="124.44"
         height="143.85001"
         id="rect26" />
    </clipPath>
  </defs>
  <defs
     id="defs40">
    <clipPath
       id="cpNDguMDV8NDguMDV8ODkuNzB8ODkuNzA=">
      <rect
         x="48.049999"
         y="89.699997"
         width="0"
         height="0"
         id="rect37" />
    </clipPath>
  </defs>
  <defs
     id="defs51">
    <clipPath
       id="cpNDIuNTd8NTMuNTN8ODQuMjJ8OTUuMTg=">
      <rect
         x="42.57"
         y="84.220001"
         width="10.96"
         height="10.96"
         id="rect48" />
    </clipPath>
  </defs>
  <g
     clip-path="url(#cpMC4wMHwxMjQuNDR8MC4xNHwxNDMuODY=)"
     id="g22"
     transform="matrix(2,0,0,2,0,-0.28)">
    <rect
       x="0"
       y="0.14"
       width="124.44"
       height="143.71001"
       style="stroke:none;stroke-width:1.07"
       id="rect20" />
  </g>
  <g
     clip-path="url(#cpMC4wMHwxMjQuNDR8MC4xNHwxNDQuMDA=)"
     id="g35"
     transform="matrix(2,0,0,2,0,-0.28)">
    <rect
       x="-0.14"
       y="0.14"
       width="124.58"
       height="143.85001"
       style="stroke:none;stroke-width:1.07"
       id="rect31" />
    <polygon
       points="123.22,107.33 123.22,36.81 62.15,1.55 1.08,36.81 1.08,107.33 62.15,142.59 "
       style="fill:#c7c8ca;stroke:none;stroke-width:2.56;stroke-linecap:butt"
       id="polygon33" />
  </g>
  <polygon
     points="62.15,1.55 1.08,36.81 1.08,107.33 62.15,142.59 123.22,107.33 123.22,36.81 "
     style="stroke:#00bc8c;stroke-width:2.56;stroke-linecap:butt;stroke-opacity:1"
     id="polygon121"
     clip-path="url(#clipPath472)"
     transform="matrix(2,0,0,2,0,-0.28)" />
  <path
     d="m 32.76,86.18 v 0 l 0.06,-0.01 0.07,-0.01 0.06,-0.01 0.07,-0.01 0.07,-0.01 0.07,-0.01 h 0.08 l 0.07,-0.01 0.08,-0.01 h 0.08 v 0 l 0.08,-0.01 h 0.07 l 0.08,-0.01 h 0.07 l 0.07,-0.01 h 0.07 0.06 0.06 0.06 0.06 v 0 h 0.07 0.06 0.07 0.06 0.07 l 0.07,0.01 h 0.07 l 0.07,0.01 h 0.07 l 0.08,0.01 v 0 h 0.07 l 0.08,0.01 0.08,0.01 h 0.07 l 0.07,0.01 0.07,0.01 0.07,0.01 0.07,0.01 0.06,0.01 0.07,0.01 v 20.46 0 l -0.22,0.06 -0.23,0.06 -0.22,0.06 -0.24,0.05 -0.24,0.05 -0.24,0.05 -0.25,0.05 -0.26,0.05 -0.26,0.04 -0.26,0.04 v 0 l -0.27,0.04 -0.28,0.04 -0.28,0.04 -0.29,0.03 -0.3,0.02 -0.3,0.02 -0.31,0.02 -0.31,0.01 -0.32,0.01 h -0.33 v 0 l -0.3,-0.01 -0.31,-0.01 -0.3,-0.02 -0.3,-0.02 -0.29,-0.03 -0.29,-0.05 -0.29,-0.04 -0.29,-0.06 -0.28,-0.06 -0.28,-0.07 v 0 l -0.27,-0.09 -0.26,-0.09 -0.26,-0.1 -0.25,-0.12 -0.24,-0.12 -0.24,-0.13 -0.22,-0.15 -0.23,-0.15 -0.21,-0.16 -0.21,-0.17 v 0 l -0.2,-0.18 -0.19,-0.2 -0.19,-0.2 -0.17,-0.21 -0.17,-0.22 -0.16,-0.24 -0.14,-0.24 -0.15,-0.25 -0.13,-0.26 -0.12,-0.28 v 0 l -0.12,-0.28 -0.1,-0.3 -0.09,-0.31 -0.07,-0.33 -0.07,-0.34 -0.05,-0.35 -0.05,-0.36 -0.03,-0.38 -0.01,-0.39 -0.01,-0.4 v 0 l 0.01,-0.35 0.01,-0.34 0.03,-0.34 0.03,-0.33 0.05,-0.33 0.06,-0.32 0.06,-0.31 0.08,-0.3 0.09,-0.3 0.09,-0.3 v 0 l 0.12,-0.28 0.12,-0.28 0.13,-0.27 0.13,-0.26 0.15,-0.25 0.16,-0.24 0.16,-0.24 0.17,-0.22 0.18,-0.22 0.19,-0.21 v 0 l 0.2,-0.21 0.2,-0.19 0.21,-0.19 0.22,-0.18 0.23,-0.16 0.24,-0.16 0.24,-0.15 0.25,-0.14 0.25,-0.12 0.27,-0.12 v 0 l 0.27,-0.11 0.28,-0.1 0.29,-0.08 0.29,-0.08 0.3,-0.06 0.31,-0.05 0.31,-0.04 0.31,-0.03 0.32,-0.02 h 0.33 v 0 h 0.15 0.15 l 0.15,0.01 0.14,0.01 0.15,0.01 0.15,0.01 0.15,0.01 0.15,0.02 0.14,0.02 0.15,0.02 v 0 l 0.15,0.02 0.15,0.03 0.14,0.02 0.14,0.03 0.14,0.03 0.13,0.03 0.13,0.03 0.12,0.03 0.12,0.03 0.12,0.04 z m 0,8.74 v 0 L 32.64,94.87 32.53,94.83 32.41,94.79 32.29,94.75 32.17,94.72 32.05,94.68 31.92,94.65 31.79,94.62 31.67,94.6 31.54,94.57 v 0 L 31.4,94.55 31.27,94.53 31.13,94.52 30.99,94.5 30.85,94.49 30.71,94.48 30.56,94.47 h -0.14 l -0.15,-0.01 h -0.16 v 0 h -0.23 l -0.22,0.02 -0.22,0.02 -0.21,0.03 -0.21,0.04 -0.19,0.04 -0.2,0.06 -0.18,0.06 -0.18,0.08 -0.18,0.08 v 0 l -0.17,0.09 -0.16,0.09 -0.15,0.1 -0.15,0.11 -0.15,0.11 -0.14,0.12 -0.13,0.13 -0.13,0.13 -0.12,0.14 -0.12,0.14 v 0 l -0.11,0.15 -0.1,0.16 -0.09,0.16 -0.09,0.17 -0.09,0.17 -0.08,0.18 -0.07,0.19 -0.07,0.19 -0.07,0.2 -0.06,0.2 v 0 l -0.04,0.2 -0.05,0.2 -0.04,0.21 -0.03,0.22 -0.03,0.21 -0.02,0.22 -0.02,0.23 -0.01,0.23 -0.01,0.23 v 0.24 0 l 0.02,0.52 0.04,0.5 0.07,0.46 0.09,0.44 0.11,0.4 0.14,0.37 0.17,0.34 0.19,0.31 0.21,0.28 0.24,0.25 v 0 l 0.26,0.22 0.28,0.2 0.29,0.17 0.32,0.15 0.33,0.13 0.35,0.11 0.37,0.08 0.38,0.06 0.41,0.03 0.42,0.01 v 0 h 0.15 0.14 0.15 0.14 l 0.13,-0.01 0.14,-0.01 h 0.13 l 0.13,-0.01 0.13,-0.01 0.13,-0.01 v 0 l 0.12,-0.02 0.12,-0.02 0.12,-0.02 0.12,-0.02 0.11,-0.02 0.11,-0.02 0.11,-0.03 0.1,-0.02 0.1,-0.03 0.1,-0.03 z"
     style="fill:#375a7f;fill-rule:nonzero;stroke:none;stroke-width:0.75;fill-opacity:1"
     id="path123"
     clip-path="url(#clipPath466)"
     transform="matrix(2,0,0,2,2.2070311e-7,4.22)" />
  <path
     d="m 40.04,92.44 v 0 l 0.06,-0.01 0.06,-0.01 0.05,-0.01 0.06,-0.01 0.06,-0.01 0.05,-0.01 0.06,-0.01 h 0.06 l 0.05,-0.01 h 0.06 v 0 l 0.06,-0.01 0.07,-0.01 h 0.06 0.06 l 0.06,-0.01 h 0.07 0.06 0.06 0.06 0.07 v 0 h 0.05 0.06 0.06 0.06 0.06 l 0.06,0.01 h 0.06 0.06 l 0.06,0.01 0.07,0.01 v 0 h 0.06 l 0.06,0.01 h 0.06 l 0.06,0.01 0.06,0.01 0.06,0.01 0.06,0.01 0.06,0.01 0.06,0.01 0.05,0.01 v 0 l 0.01,0.01 v 0.02 l 0.01,0.03 0.01,0.03 v 0.03 l 0.01,0.04 v 0.05 l 0.01,0.05 v 0.05 l 0.01,0.06 v 0 l 0.01,0.06 0.01,0.06 0.01,0.06 0.01,0.06 0.01,0.06 0.01,0.06 0.01,0.07 v 0.06 l 0.01,0.07 v 0.07 0 l 0.02,0.06 0.01,0.07 0.01,0.07 0.01,0.06 v 0.07 l 0.01,0.07 0.01,0.06 0.01,0.06 v 0.07 l 0.01,0.06 v 0 l 0.01,0.06 0.01,0.06 0.01,0.05 0.01,0.04 v 0.05 l 0.01,0.03 v 0.04 0.03 l 0.01,0.02 v 0.02 0 l 0.06,-0.09 0.06,-0.09 0.06,-0.09 0.06,-0.09 0.07,-0.09 0.07,-0.09 0.07,-0.08 0.08,-0.09 0.07,-0.09 0.08,-0.08 v 0 l 0.08,-0.09 0.08,-0.08 0.09,-0.08 0.09,-0.08 0.09,-0.08 0.1,-0.07 0.1,-0.08 0.1,-0.07 0.1,-0.07 0.11,-0.07 v 0 l 0.11,-0.07 0.12,-0.06 0.12,-0.06 0.12,-0.06 0.13,-0.06 0.12,-0.05 0.13,-0.05 0.13,-0.05 0.14,-0.04 0.13,-0.04 v 0 l 0.14,-0.04 0.15,-0.03 0.15,-0.03 0.15,-0.03 0.16,-0.02 0.16,-0.02 0.16,-0.01 0.16,-0.01 0.17,-0.01 h 0.17 v 0 h 0.25 l 0.25,0.02 0.25,0.02 0.24,0.03 0.24,0.04 0.23,0.04 0.23,0.06 0.23,0.06 0.22,0.07 0.22,0.09 v 0 l 0.22,0.09 0.21,0.1 0.2,0.11 0.2,0.11 0.19,0.13 0.19,0.14 0.17,0.15 0.17,0.16 0.17,0.17 0.16,0.17 v 0 l 0.15,0.18 0.15,0.2 0.14,0.2 0.13,0.21 0.13,0.22 0.12,0.24 0.11,0.24 0.1,0.25 0.1,0.27 0.09,0.27 v 0 l 0.09,0.28 0.07,0.29 0.07,0.29 0.06,0.31 0.05,0.32 0.04,0.33 0.03,0.34 0.03,0.35 0.01,0.36 v 0.37 0 l -0.02,0.74 -0.06,0.7 -0.1,0.67 -0.14,0.64 -0.19,0.6 -0.22,0.58 -0.27,0.54 -0.31,0.5 -0.35,0.48 -0.38,0.44 v 0 l -0.43,0.4 -0.45,0.36 -0.49,0.32 -0.52,0.27 -0.56,0.23 -0.59,0.19 -0.63,0.15 -0.66,0.1 -0.69,0.07 -0.73,0.02 v 0 h -0.13 l -0.12,-0.01 H 44.9 l -0.13,-0.01 h -0.13 l -0.12,-0.01 -0.13,-0.01 -0.13,-0.02 -0.13,-0.01 -0.13,-0.02 v 0 l -0.13,-0.01 -0.13,-0.02 -0.12,-0.02 -0.12,-0.02 -0.11,-0.03 -0.12,-0.02 -0.11,-0.02 -0.1,-0.03 -0.1,-0.03 -0.1,-0.02 v 6.68 0 l -0.07,0.01 -0.07,0.01 -0.07,0.01 -0.07,0.01 -0.08,0.01 -0.07,0.01 -0.08,0.01 h -0.07 l -0.08,0.01 -0.08,0.01 v 0 h -0.07 l -0.08,0.01 H 41.9 l -0.07,0.01 H 41.76 41.7 41.63 41.56 l -0.06,0.01 h -0.06 v 0 h -0.07 l -0.06,-0.01 H 41.24 41.17 41.1 41.03 l -0.07,-0.01 h -0.08 l -0.08,-0.01 h -0.07 v 0 l -0.08,-0.01 -0.07,-0.01 h -0.07 l -0.07,-0.01 -0.07,-0.01 -0.07,-0.01 -0.06,-0.01 -0.07,-0.01 -0.06,-0.01 -0.07,-0.01 z m 2.82,12.21 v 0 l 0.11,0.04 0.11,0.03 0.11,0.04 0.11,0.03 0.11,0.03 0.11,0.02 0.11,0.03 0.11,0.02 0.12,0.02 0.11,0.02 v 0 l 0.12,0.02 0.12,0.01 0.13,0.01 0.14,0.02 0.14,0.01 h 0.15 l 0.16,0.01 h 0.17 l 0.17,0.01 h 0.18 v 0 l 0.2,-0.01 0.2,-0.01 0.2,-0.01 0.19,-0.02 0.19,-0.03 0.19,-0.04 0.18,-0.04 0.18,-0.04 0.17,-0.06 0.18,-0.06 v 0 l 0.16,-0.07 0.17,-0.08 0.16,-0.08 0.15,-0.09 0.15,-0.1 0.14,-0.11 0.14,-0.11 0.13,-0.12 0.13,-0.13 0.12,-0.13 v 0 l 0.12,-0.14 0.12,-0.15 0.11,-0.15 0.1,-0.16 0.1,-0.17 0.1,-0.17 0.08,-0.18 0.09,-0.19 0.07,-0.2 0.07,-0.2 v 0 l 0.08,-0.21 0.06,-0.22 0.05,-0.23 0.05,-0.24 0.04,-0.24 0.04,-0.25 0.02,-0.26 0.02,-0.27 0.01,-0.27 v -0.28 0 -0.45 L 50.08,98.62 50.04,98.22 49.98,97.83 49.9,97.46 49.81,97.1 49.7,96.77 49.57,96.46 49.42,96.16 49.26,95.88 v 0 L 49.09,95.63 48.89,95.4 48.67,95.2 48.43,95.03 48.17,94.88 47.88,94.76 47.58,94.67 47.25,94.6 46.9,94.56 46.53,94.55 v 0 h -0.14 l -0.14,0.01 -0.14,0.01 -0.14,0.02 -0.14,0.02 -0.13,0.03 -0.14,0.03 -0.13,0.04 -0.13,0.04 -0.14,0.05 v 0 l -0.13,0.06 -0.12,0.05 -0.13,0.07 -0.12,0.07 -0.11,0.07 -0.12,0.08 -0.11,0.09 -0.11,0.09 -0.11,0.09 -0.1,0.1 v 0 l -0.1,0.11 -0.1,0.11 -0.09,0.11 -0.09,0.13 -0.08,0.12 -0.09,0.14 -0.07,0.14 -0.07,0.14 -0.07,0.15 -0.07,0.16 v 0 l -0.06,0.16 -0.05,0.16 -0.05,0.17 -0.04,0.17 -0.03,0.19 -0.03,0.18 -0.02,0.2 -0.02,0.2 -0.01,0.21 v 0.21 z"
     style="fill:#375a7f;fill-rule:nonzero;stroke:none;stroke-width:0.75;fill-opacity:1"
     id="path125"
     clip-path="url(#clipPath460)"
     transform="matrix(2,0,0,2,2.2070311e-7,4.22)" />
  <path
     d="m 64.57,100.18 v 0 l -0.09,-0.01 -0.09,-0.01 -0.1,-0.01 -0.1,-0.02 -0.1,-0.01 -0.12,-0.01 -0.11,-0.01 -0.12,-0.01 -0.12,-0.01 -0.13,-0.01 v 0 l -0.13,-0.02 h -0.13 l -0.12,-0.01 -0.11,-0.01 -0.12,-0.01 h -0.11 l -0.1,-0.01 h -0.1 -0.1 -0.09 v 0 l -0.35,0.01 -0.32,0.01 -0.32,0.04 -0.29,0.04 -0.28,0.06 -0.26,0.07 -0.25,0.09 -0.23,0.1 -0.21,0.11 -0.2,0.12 v 0 l -0.17,0.14 -0.15,0.15 -0.14,0.17 -0.12,0.18 -0.1,0.19 -0.08,0.2 -0.06,0.22 -0.05,0.24 -0.03,0.24 -0.01,0.26 v 0 l 0.01,0.17 0.01,0.16 0.01,0.15 0.02,0.15 0.03,0.14 0.04,0.13 0.04,0.12 0.04,0.11 0.06,0.11 0.06,0.1 v 0 l 0.06,0.1 0.07,0.09 0.07,0.08 0.07,0.08 0.08,0.08 0.07,0.07 0.09,0.07 0.08,0.06 0.09,0.06 0.09,0.05 v 0 l 0.09,0.05 0.1,0.05 0.1,0.04 0.11,0.03 0.1,0.04 0.11,0.03 0.1,0.02 0.11,0.02 0.12,0.02 0.11,0.01 v 0 l 0.11,0.02 0.11,0.01 h 0.11 l 0.11,0.01 0.11,0.01 h 0.11 l 0.11,0.01 h 0.1 0.11 0.1 v 0 h 0.13 0.13 0.13 l 0.14,-0.01 h 0.13 l 0.14,-0.01 0.13,-0.01 h 0.13 l 0.14,-0.01 0.14,-0.02 v 0 l 0.14,-0.01 0.13,-0.02 0.14,-0.02 0.13,-0.02 0.13,-0.02 0.12,-0.03 0.12,-0.02 0.12,-0.03 0.11,-0.02 0.11,-0.03 z m 0,-2.76 v 0 L 64.56,97.09 64.53,96.79 64.49,96.5 64.43,96.24 64.36,96 l -0.1,-0.23 -0.11,-0.2 -0.13,-0.18 -0.14,-0.16 -0.16,-0.14 v 0 l -0.18,-0.13 -0.2,-0.11 -0.21,-0.1 -0.22,-0.08 -0.24,-0.07 -0.26,-0.06 -0.27,-0.05 -0.28,-0.03 -0.3,-0.02 -0.32,-0.01 v 0 h -0.2 l -0.19,0.01 -0.2,0.01 -0.19,0.01 -0.19,0.01 -0.18,0.02 -0.19,0.03 -0.18,0.02 -0.18,0.03 -0.18,0.03 v 0 l -0.17,0.03 -0.17,0.03 -0.17,0.04 -0.17,0.03 -0.16,0.04 -0.17,0.04 -0.17,0.05 -0.17,0.04 -0.16,0.05 -0.17,0.05 v 0 l -0.1,-0.19 -0.09,-0.2 -0.08,-0.21 -0.07,-0.21 -0.06,-0.22 -0.05,-0.23 -0.04,-0.23 -0.03,-0.25 -0.01,-0.25 -0.01,-0.26 v 0 l 0.2,-0.06 0.2,-0.06 0.2,-0.05 0.21,-0.05 0.21,-0.05 0.22,-0.05 0.21,-0.05 0.23,-0.04 0.23,-0.03 0.23,-0.04 v 0 l 0.23,-0.03 0.23,-0.03 0.23,-0.03 0.23,-0.02 0.22,-0.02 0.23,-0.01 0.22,-0.02 h 0.22 l 0.22,-0.01 h 0.21 v 0 l 0.56,0.01 0.53,0.04 0.5,0.07 0.47,0.09 0.45,0.12 0.42,0.14 0.39,0.17 0.36,0.2 0.34,0.22 0.31,0.25 v 0 l 0.28,0.27 0.25,0.3 0.22,0.34 0.2,0.36 0.16,0.4 0.13,0.43 0.11,0.46 0.07,0.49 0.04,0.52 0.02,0.55 v 9.14 0 l -0.2,0.04 -0.22,0.05 -0.22,0.04 -0.23,0.05 -0.23,0.04 -0.25,0.05 -0.25,0.05 -0.27,0.04 -0.27,0.05 -0.28,0.04 v 0 l -0.28,0.05 -0.29,0.04 -0.29,0.04 -0.29,0.04 -0.29,0.02 -0.29,0.03 -0.29,0.02 -0.29,0.01 -0.3,0.01 h -0.29 v 0 h -0.28 l -0.27,-0.01 -0.27,-0.01 -0.26,-0.02 -0.25,-0.03 -0.25,-0.02 -0.25,-0.04 -0.24,-0.04 -0.23,-0.04 -0.23,-0.05 v 0 l -0.22,-0.05 -0.22,-0.06 -0.2,-0.07 -0.2,-0.07 -0.2,-0.08 -0.18,-0.09 -0.18,-0.09 -0.18,-0.1 -0.17,-0.1 -0.16,-0.11 v 0 l -0.15,-0.12 -0.14,-0.12 -0.14,-0.13 -0.13,-0.14 -0.12,-0.14 -0.12,-0.15 -0.11,-0.15 -0.1,-0.16 -0.1,-0.17 -0.09,-0.17 v 0 l -0.08,-0.18 -0.07,-0.19 -0.06,-0.2 -0.06,-0.2 -0.05,-0.21 -0.03,-0.22 -0.03,-0.22 -0.03,-0.23 -0.01,-0.24 v -0.25 0 -0.24 l 0.02,-0.24 0.02,-0.22 0.04,-0.23 0.04,-0.21 0.05,-0.21 0.06,-0.21 0.08,-0.2 0.08,-0.19 0.09,-0.18 v 0 l 0.11,-0.19 0.11,-0.17 0.12,-0.17 0.13,-0.17 0.13,-0.16 0.14,-0.15 0.15,-0.14 0.15,-0.14 0.16,-0.13 0.17,-0.12 v 0 l 0.17,-0.12 0.18,-0.12 0.18,-0.1 0.19,-0.1 0.19,-0.1 0.2,-0.09 0.21,-0.08 0.21,-0.07 0.21,-0.07 0.22,-0.06 v 0 l 0.22,-0.06 0.23,-0.05 0.23,-0.05 0.23,-0.04 0.23,-0.03 0.23,-0.03 0.24,-0.02 0.24,-0.02 0.24,-0.01 h 0.24 v 0 h 0.18 0.17 0.17 l 0.16,0.01 h 0.15 l 0.14,0.01 0.14,0.01 h 0.13 l 0.13,0.01 0.11,0.01 v 0 l 0.12,0.01 0.11,0.01 h 0.11 l 0.11,0.01 0.1,0.01 0.1,0.01 0.09,0.01 0.09,0.01 0.09,0.01 0.08,0.01 z"
     style="fill:#375a7f;fill-rule:nonzero;stroke:none;stroke-width:0.75;fill-opacity:1"
     id="path127"
     clip-path="url(#clipPath454)"
     transform="matrix(2,0,0,2,2.2070311e-7,4.22)" />
  <path
     d="m 69.78,92.44 v 0 l 0.08,-0.01 0.08,-0.01 0.08,-0.01 0.08,-0.01 0.08,-0.01 0.08,-0.01 0.09,-0.01 h 0.08 l 0.09,-0.01 h 0.08 v 0 l 0.09,-0.01 0.08,-0.01 h 0.08 0.08 l 0.08,-0.01 h 0.07 0.08 0.07 0.07 0.07 v 0 h 0.07 0.08 0.08 0.07 0.08 l 0.08,0.01 H 71.91 72 l 0.08,0.01 0.09,0.01 v 0 h 0.09 l 0.08,0.01 h 0.09 l 0.08,0.01 0.08,0.01 0.07,0.01 0.07,0.01 0.07,0.01 0.07,0.01 0.06,0.01 3.99,12.04 4.01,-12.04 v 0 l 0.06,-0.01 0.07,-0.01 0.06,-0.01 0.07,-0.01 0.07,-0.01 0.08,-0.01 0.07,-0.01 h 0.07 l 0.08,-0.01 h 0.08 v 0 l 0.08,-0.01 0.08,-0.01 h 0.08 0.07 l 0.08,-0.01 h 0.08 0.07 0.08 0.07 0.08 v 0 h 0.06 0.07 0.06 0.07 0.07 l 0.08,0.01 h 0.07 0.07 l 0.08,0.01 0.08,0.01 v 0 h 0.08 l 0.08,0.01 h 0.08 l 0.08,0.01 0.08,0.01 0.08,0.01 0.08,0.01 0.08,0.01 0.08,0.01 0.08,0.01 -5.69,14.6 v 0 l -0.08,0.01 -0.07,0.01 -0.08,0.01 -0.07,0.01 -0.07,0.01 h -0.08 l -0.07,0.01 -0.08,0.01 -0.07,0.01 h -0.07 v 0 l -0.08,0.01 h -0.07 l -0.07,0.01 H 77.2 77.13 l -0.07,0.01 H 77 76.93 76.87 76.8 v 0 h -0.06 -0.06 -0.07 -0.07 l -0.06,-0.01 h -0.07 -0.07 l -0.07,-0.01 h -0.08 l -0.07,-0.01 v 0 h -0.07 l -0.07,-0.01 -0.06,-0.01 -0.07,-0.01 h -0.07 l -0.07,-0.01 -0.07,-0.01 -0.07,-0.01 -0.06,-0.01 -0.07,-0.01 z"
     style="fill:#375a7f;fill-rule:nonzero;stroke:none;stroke-width:0.75;fill-opacity:1"
     id="path129"
     clip-path="url(#clipPath448)"
     transform="matrix(2,0,0,2,2.2070311e-7,4.22)" />
  <path
     d="m 87.53,94.66 h -1.85 v 0 L 85.67,94.61 85.66,94.57 85.65,94.52 85.64,94.47 85.63,94.42 85.62,94.37 V 94.31 L 85.61,94.26 85.6,94.2 v -0.05 0 L 85.59,94.09 V 94.02 L 85.58,93.96 V 93.9 l -0.01,-0.06 v -0.06 -0.06 -0.06 -0.05 -0.06 0 -0.06 -0.05 -0.06 -0.06 -0.05 l 0.01,-0.06 v -0.06 l 0.01,-0.06 v -0.05 l 0.01,-0.06 v 0 -0.06 l 0.01,-0.06 0.01,-0.06 v -0.06 l 0.01,-0.05 0.01,-0.05 0.01,-0.06 0.01,-0.05 0.01,-0.04 0.01,-0.05 h 4.61 v 14.6 0 l -0.06,0.01 -0.07,0.01 -0.07,0.01 -0.06,0.01 -0.07,0.01 h -0.08 l -0.07,0.01 -0.08,0.01 -0.07,0.01 h -0.08 v 0 l -0.07,0.01 h -0.08 l -0.07,0.01 h -0.07 -0.07 l -0.06,0.01 H 89.09 89.02 88.96 88.9 v 0 h -0.06 -0.06 -0.07 -0.06 l -0.07,-0.01 h -0.07 -0.07 l -0.07,-0.01 h -0.08 l -0.08,-0.01 v 0 H 88.14 L 88.07,107.11 88,107.1 87.93,107.09 h -0.07 l -0.07,-0.01 -0.07,-0.01 -0.06,-0.01 -0.07,-0.01 -0.06,-0.01 z M 86.9,89.23 v 0 L 86.89,89.16 86.88,89.09 86.87,89.02 86.86,88.94 86.85,88.87 V 88.8 l -0.01,-0.08 -0.01,-0.08 -0.01,-0.08 v -0.07 0 -0.08 -0.08 -0.08 -0.07 -0.07 -0.07 -0.07 -0.07 -0.06 -0.07 0 -0.06 -0.06 -0.07 -0.07 -0.07 -0.07 -0.08 -0.07 -0.08 -0.08 0 -0.08 l 0.01,-0.07 0.01,-0.08 0.01,-0.07 v -0.07 l 0.01,-0.07 0.01,-0.07 0.01,-0.07 0.01,-0.07 0.01,-0.06 v 0 l 0.08,-0.01 0.07,-0.01 0.08,-0.01 0.08,-0.01 0.08,-0.01 0.08,-0.01 h 0.08 l 0.08,-0.01 0.09,-0.01 h 0.08 v 0 l 0.09,-0.01 h 0.08 l 0.08,-0.01 h 0.07 l 0.08,-0.01 h 0.07 0.07 0.07 0.07 0.06 v 0 h 0.06 0.07 0.07 0.07 0.07 l 0.08,0.01 h 0.07 l 0.08,0.01 h 0.09 l 0.08,0.01 v 0 h 0.08 l 0.09,0.01 0.08,0.01 h 0.08 l 0.08,0.01 0.07,0.01 0.08,0.01 0.07,0.01 0.07,0.01 0.07,0.01 v 0 l 0.01,0.06 0.01,0.07 0.01,0.07 0.01,0.07 v 0.07 L 90,86.76 v 0.07 0.08 l 0.01,0.07 v 0.08 0 0.08 l 0.01,0.08 v 0.07 0.08 l 0.01,0.07 v 0.07 0.07 0.07 0.06 0.06 0 0.07 0.06 0.07 0.07 0.07 l -0.01,0.07 v 0.07 0.08 l -0.01,0.08 v 0.08 0 0.07 L 90,88.64 v 0.08 0.08 l -0.01,0.07 v 0.07 l -0.01,0.08 -0.01,0.07 -0.01,0.07 -0.01,0.07 v 0 l -0.07,0.01 -0.07,0.01 -0.07,0.01 -0.08,0.01 -0.07,0.01 h -0.08 l -0.08,0.01 -0.08,0.01 h -0.09 l -0.08,0.01 v 0 l -0.08,0.01 h -0.08 l -0.07,0.01 H 88.88 88.8 88.73 l -0.07,0.01 H 88.6 88.53 88.47 v 0 H 88.4 88.33 88.26 L 88.18,89.33 H 88.11 88.03 87.95 L 87.87,89.32 H 87.79 L 87.7,89.31 v 0 L 87.62,89.3 h -0.09 l -0.08,-0.01 -0.08,-0.01 h -0.08 l -0.08,-0.01 -0.08,-0.01 -0.08,-0.01 -0.07,-0.01 z"
     style="fill:#375a7f;fill-rule:nonzero;stroke:none;stroke-width:0.75;fill-opacity:1"
     id="path131"
     clip-path="url(#clipPath442)"
     transform="matrix(2,0,0,2,2.2070311e-7,4.22)" />
  <path
     d="m 94.87,92.44 v 0 l 0.06,-0.01 0.07,-0.01 0.06,-0.01 0.06,-0.01 0.06,-0.01 0.06,-0.01 0.06,-0.01 h 0.05 l 0.06,-0.01 h 0.06 v 0 l 0.06,-0.01 0.05,-0.01 h 0.06 0.06 l 0.06,-0.01 h 0.06 0.06 0.06 0.06 0.07 v 0 h 0.06 0.06 0.06 0.07 0.06 l 0.06,0.01 h 0.06 0.07 l 0.06,0.01 0.06,0.01 v 0 h 0.06 l 0.06,0.01 h 0.06 l 0.06,0.01 0.06,0.01 0.06,0.01 0.05,0.01 0.06,0.01 0.05,0.01 0.05,0.01 v 0 l 0.02,0.09 0.02,0.09 0.01,0.1 0.02,0.11 0.02,0.11 0.01,0.11 0.02,0.13 0.02,0.13 0.01,0.13 0.02,0.14 v 0 l 0.02,0.13 0.01,0.13 0.02,0.13 0.01,0.12 0.01,0.12 v 0.12 l 0.01,0.11 v 0.1 l 0.01,0.11 v 0.1 0 l 0.12,-0.2 0.13,-0.18 0.14,-0.18 0.14,-0.18 0.16,-0.17 0.16,-0.16 0.16,-0.16 0.18,-0.16 0.18,-0.15 0.19,-0.14 v 0 l 0.21,-0.14 0.21,-0.12 0.23,-0.11 0.24,-0.09 0.24,-0.08 0.26,-0.06 0.27,-0.05 0.28,-0.04 0.29,-0.02 h 0.3 v 0 h 0.05 0.05 0.04 0.05 0.04 l 0.05,0.01 h 0.04 0.05 l 0.04,0.01 h 0.05 v 0 h 0.05 0.05 l 0.05,0.01 h 0.04 0.04 0.05 l 0.04,0.01 h 0.03 l 0.04,0.01 h 0.04 v 0 l 0.01,0.05 0.01,0.06 0.01,0.05 0.01,0.05 0.01,0.06 v 0.05 l 0.01,0.05 0.01,0.06 0.01,0.06 v 0.05 0 l 0.01,0.06 v 0.06 l 0.01,0.06 v 0.05 0.06 l 0.01,0.06 v 0.06 0.07 0.06 0.06 0 0.07 0.07 0.07 l -0.01,0.07 v 0.07 l -0.01,0.07 -0.01,0.07 -0.01,0.07 -0.01,0.08 -0.01,0.07 v 0 0.08 l -0.01,0.07 -0.01,0.07 v 0.07 l -0.01,0.07 -0.01,0.07 -0.01,0.08 -0.01,0.06 -0.01,0.07 -0.01,0.07 v 0 l -0.05,-0.01 -0.04,-0.01 -0.05,-0.01 h -0.05 l -0.05,-0.01 -0.05,-0.01 h -0.04 -0.05 -0.05 -0.06 v 0 h -0.04 -0.04 -0.04 -0.04 -0.04 -0.04 -0.03 -0.04 -0.03 -0.03 v 0 h -0.15 -0.15 l -0.15,0.02 -0.15,0.01 -0.15,0.02 -0.15,0.03 -0.14,0.03 -0.15,0.03 -0.14,0.04 -0.15,0.04 v 0 l -0.13,0.05 -0.13,0.05 -0.13,0.05 -0.13,0.07 -0.13,0.07 -0.12,0.08 -0.13,0.08 -0.11,0.09 -0.12,0.1 -0.12,0.1 v 0 l -0.1,0.12 -0.11,0.12 -0.09,0.12 -0.1,0.14 -0.09,0.14 -0.08,0.16 -0.09,0.16 L 98.15,97 98.07,97.18 98,97.36 v 0 l -0.06,0.2 -0.05,0.2 -0.05,0.21 -0.04,0.23 -0.03,0.24 -0.03,0.24 -0.02,0.26 -0.02,0.27 -0.01,0.28 v 0.29 7.26 0 l -0.07,0.01 -0.06,0.01 -0.07,0.01 -0.07,0.01 -0.07,0.01 h -0.07 l -0.07,0.01 -0.08,0.01 -0.07,0.01 h -0.08 v 0 l -0.08,0.01 h -0.07 l -0.07,0.01 h -0.07 -0.07 l -0.07,0.01 h -0.06 -0.07 -0.06 -0.07 v 0 H 96.23 96.17 96.1 96.03 l -0.07,-0.01 h -0.07 -0.08 l -0.07,-0.01 h -0.08 l -0.08,-0.01 v 0 h -0.07 l -0.07,-0.01 -0.08,-0.01 -0.07,-0.01 h -0.07 l -0.07,-0.01 -0.07,-0.01 -0.07,-0.01 -0.07,-0.01 -0.07,-0.01 z"
     style="fill:#375a7f;fill-rule:nonzero;stroke:none;stroke-width:0.75;fill-opacity:1"
     id="path133"
     clip-path="url(#clipPath436)"
     transform="matrix(2,0,0,2,2.2070311e-7,4.22)" />
  <g
     id="g3501">
    <rect
       style="opacity:0.998749;fill:#375a7f;fill-opacity:1;stroke:none;stroke-width:2.53234;stroke-linejoin:round"
       id="rect1093"
       width="60"
       height="67.899109"
       x="92.949326"
       y="32.37817"
       ry="1.2872322" />
    <rect
       style="opacity:0.998749;fill:#375a7f;fill-opacity:1;stroke:none;stroke-width:2.83464;stroke-linejoin:round"
       id="rect1979"
       width="95.282249"
       height="6.0050678"
       x="75.308197"
       y="103.92776"
       ry="1.0097671" />
    <rect
       style="opacity:0.998749;fill:#00bc8c;fill-opacity:1;stroke:none;stroke-width:3.26644;stroke-linejoin:round"
       id="rect1981"
       width="60.400002"
       height="6.5496011"
       x="92.749321"
       y="97.378166" />
  </g>
  <circle
     style="opacity:0.998749;fill:none;fill-opacity:1;stroke:#375a7f;stroke-width:2.83464;stroke-linejoin:round;stroke-opacity:1"
     id="path2768"
     cx="142.33669"
     cy="129.63608"
     r="11.567183" />
  <g
     id="g3496">
    <path
       style="fill:#375a7f;fill-opacity:1;stroke:none;stroke-width:1.5px;stroke-linecap:butt;stroke-linejoin:miter;stroke-opacity:1"
       d="m 121.54177,151.83783 c 3.5087,-0.87638 6.45726,-3.23737 10.01914,-3.95203 4.55071,-0.0995 8.47285,2.73171 11.66151,5.6912 2.70116,2.59055 5.59572,5.50306 9.47064,6.07496 1.30242,0.30997 2.547,-0.18504 3.73722,-0.49723 -0.0952,1.56447 -1.51642,2.9063 -2.72934,3.84165 -1.96526,1.32228 -4.19726,2.24765 -6.45602,2.92902 -2.52628,0.57652 -5.10718,-0.11718 -7.4704,-0.99827 -3.3331,-0.83221 -6.85356,-1.61864 -9.56427,-3.86414 -3.73448,-2.04346 -7.50396,-4.91992 -8.66848,-9.22516 z"
       id="path2990" />
    <path
       style="fill:#375a7f;fill-opacity:1;stroke:none;stroke-width:1.5px;stroke-linecap:butt;stroke-linejoin:miter;stroke-miterlimit:10;stroke-opacity:1"
       d="m 124.35688,151.83783 c -3.50871,-0.87638 -6.45727,-3.23737 -10.01914,-3.95203 -4.55071,-0.0995 -8.47285,2.73171 -11.66151,5.6912 -2.701164,2.59055 -5.595724,5.50306 -9.470644,6.07496 -1.30242,0.30997 -2.547,-0.18504 -3.73722,-0.49723 0.0952,1.56447 1.51642,2.9063 2.72934,3.84165 1.96526,1.32228 4.19726,2.24765 6.45602,2.92902 2.526284,0.57651 5.107184,-0.11718 7.470404,-0.99827 3.3331,-0.83221 6.85355,-1.61864 9.56426,-3.86414 3.73448,-2.04346 7.50396,-4.91992 8.66849,-9.22516 z"
       id="path2990-3" />
  </g>
  <text
     xml:space="preserve"
     style="font-style:normal;font-weight:normal;font-size:60px;line-height:1.25;font-family:sans-serif;letter-spacing:0px;word-spacing:0px;white-space:pre;fill:#375a7f;fill-opacity:1;stroke:none;stroke-width:1.5"
     x="-9.8985977"
     y="302.59058"
     id="text3983"
     transform="rotate(-29.293082)"><tspan
       sodipodi:role="line"
       id="tspan3981"
       style="font-style:normal;font-variant:normal;font-weight:normal;font-stretch:normal;font-size:16px;font-family:'JetBrains Mono';-inkscape-font-specification:'JetBrains Mono, Normal';font-variant-ligatures:normal;font-variant-caps:normal;font-variant-numeric:normal;font-variant-east-asian:normal;fill:#375a7f;fill-opacity:1;stroke-width:1.5"
       x="-9.8985977"
       y="302.59058">dpavir.org</tspan></text>
</svg>
